HIERARCHY
ROOT Hips
{
	OFFSET 0.000000 0.000000 0.000000 
	CHANNELS 6 Xposition Yposition Zposition Zrotation Yrotation Xrotation
	JOINT LeftUpLeg
	{
		OFFSET 1.363060 -1.794630 0.839290 
		CHANNELS 3 Zrotation Yrotation Xrotation
		JOINT LeftLeg
		{
			OFFSET 2.448110 -6.726130 0.000000 
			CHANNELS 3 Zrotation Yrotation Xrotation
			JOINT LeftFoot
			{
				OFFSET 2.562200 -7.039590 0.000000 
				CHANNELS 3 Zrotation Yrotation Xrotation
				JOINT LeftToeBase
				{
					OFFSET 0.157640 -0.433110 2.322550 
					CHANNELS 3 Zrotation Yrotation Xrotation
					End Site
					{
						OFFSET 0.000000 0.000000 0.000000 
					}
				}
			}
		}
	}
	JOINT RightUpLeg
	{
		OFFSET -1.305520 -1.794630 0.839290 
		CHANNELS 3 Zrotation Yrotation Xrotation
		JOINT RightLeg
		{
			OFFSET -2.542530 -6.985550 0.000000 
			CHANNELS 3 Zrotation Yrotation Xrotation
			JOINT RightFoot
			{
				OFFSET -2.568260 -7.056230 0.000000 
				CHANNELS 3 Zrotation Yrotation Xrotation
				JOINT RightToeBase
				{
					OFFSET -0.164730 -0.452590 2.363150 
					CHANNELS 3 Zrotation Yrotation Xrotation
					End Site
					{
						OFFSET 0.000000 0.000000 0.000000 
					}
				}
			}
		}
	}
	JOINT Spine
	{
		OFFSET 0.028270 2.035590 -0.193380 
		CHANNELS 3 Zrotation Yrotation Xrotation
		JOINT Spine1
		{
			OFFSET 0.056720 2.048850 -0.042750 
			CHANNELS 3 Zrotation Yrotation Xrotation
			JOINT Neck1
			{
				OFFSET -0.054170 1.746240 0.172020 
				CHANNELS 3 Zrotation Yrotation Xrotation
				JOINT Head
				{
					OFFSET 0.104070 1.761360 -0.123970 
					CHANNELS 3 Zrotation Yrotation Xrotation
					End Site
					{
						OFFSET 0.000000 0.000000 0.000000 
					}
				}
			}
			JOINT LeftArm
			{
				OFFSET 3.362410 1.200890 -0.311210 
				CHANNELS 3 Zrotation Yrotation Xrotation
				JOINT LeftForeArm
				{
					OFFSET 4.983000 -0.000000 -0.000000 
					CHANNELS 3 Zrotation Yrotation Xrotation
					JOINT LeftHand
					{
						OFFSET 3.483560 -0.000000 -0.000000 
						CHANNELS 3 Zrotation Yrotation Xrotation
						JOINT LeftHandIndex1
						{
							OFFSET 0.715260 -0.000000 -0.000000 
							CHANNELS 3 Zrotation Yrotation Xrotation
							End Site
							{
								OFFSET 0.000000 0.000000 0.000000 
							}
						}
					}
				}
			}
			JOINT RightArm
			{
				OFFSET -3.136600 1.374050 -0.404650 
				CHANNELS 3 Zrotation Yrotation Xrotation
				JOINT RightForeArm
				{
					OFFSET -5.241900 -0.000000 -0.000000 
					CHANNELS 3 Zrotation Yrotation Xrotation
					JOINT RightHand
					{
						OFFSET -3.444170 -0.000000 -0.000000 
						CHANNELS 3 Zrotation Yrotation Xrotation
						JOINT RightHandIndex1
						{
							OFFSET -0.622530 -0.000000 -0.000000 
							CHANNELS 3 Zrotation Yrotation Xrotation
							End Site
							{
								OFFSET 0.000000 0.000000 0.000000 
							}
						}
					}
				}
			}
		}
	}
}
MOTION
Frames: 7
Frame Time: 0.041667
-1.149296 18.141600 -6.165091 -173.787878 -59.456334 -175.251486 -10.028646 -13.465042 -31.951171 3.885206 14.377748 40.641344 -0.647540 5.858267 -4.877050 0.017900 -0.863400 -2.372900 22.030575 -5.830741 -20.596690 0.110195 -8.639254 24.173130 -4.541938 19.420288 2.910177 -3.235700 -11.067100 32.506500 1.303867 0.068402 -2.965439 -0.858431 0.278687 10.628087 8.925928 -2.758435 20.704220 3.001500 -0.923500 3.828100 -95.557616 -5.601339 24.546504 17.322487 -27.911297 -4.738187 0.141279 -0.555286 17.921675 -7.125000 0.000000 0.000000 88.983337 6.280204 13.012948 -16.451282 28.827329 -3.909936 0.838452 -1.301154 26.523715 7.125000 0.000000 0.000000 
-1.324749 18.139166 -6.294745 -173.714976 -59.001929 -175.114383 -9.456005 -13.493737 -32.193666 2.816074 13.197248 36.307781 -0.651100 5.738112 -3.396075 0.072500 -1.737600 -4.780900 22.038682 -5.706380 -19.837708 0.146630 -8.482895 23.801699 -4.581806 19.774213 2.652355 -3.210100 -11.027600 32.372900 1.259167 0.231681 -2.969802 -1.026646 0.381643 10.681032 8.686023 -2.460256 20.808737 2.961100 -0.782300 3.859800 -95.733586 -5.834953 24.917691 17.766389 -28.436724 -4.948642 0.144684 -0.567492 17.621701 -7.125000 0.000000 0.000000 89.068874 6.713489 14.644752 -17.246785 29.707556 -4.152925 0.863153 -1.298625 25.495325 7.125000 0.000000 0.000000 
-1.501973 18.134741 -6.429377 -173.630517 -58.474762 -175.101244 -8.967626 -13.252845 -32.239531 1.844638 11.913027 31.955963 -0.601837 5.404415 -1.362495 0.133900 -2.358500 -6.497500 22.057492 -5.602312 -18.875542 0.211961 -8.258110 23.243079 -4.606778 19.891871 2.352036 -3.071700 -10.810200 31.642500 1.202419 0.495003 -2.957984 -1.188235 0.531616 10.738322 8.555500 -2.261942 20.896313 2.952300 -0.686500 3.917900 -95.806433 -6.080871 25.404035 18.053694 -28.757368 -5.080459 0.145260 -0.578938 17.133668 -7.125000 0.000000 0.000000 89.304389 7.129911 15.915664 -17.950835 30.472103 -4.373984 0.880593 -1.305653 24.733075 7.125000 0.000000 0.000000 
-1.683842 18.132196 -6.572306 -173.605411 -57.886315 -175.138333 -8.566528 -12.779245 -32.097631 1.003748 10.573131 27.714550 -0.461627 4.702662 1.017423 0.107000 -2.109000 -5.806900 22.063252 -5.548696 -17.739817 0.283193 -7.999361 22.601053 -4.628443 19.918593 1.989236 -2.891800 -10.517800 30.670500 1.145730 0.797710 -2.936369 -1.294983 0.688756 10.782308 8.317662 -2.064801 20.939791 2.836000 -0.580300 3.935500 -95.963659 -6.292830 25.448973 18.112854 -28.809155 -5.103830 0.144881 -0.580915 17.112485 -7.125000 0.000000 0.000000 89.568248 7.486372 17.113474 -18.572311 31.129731 -4.574233 0.891885 -1.328577 23.999801 7.125000 0.000000 0.000000 
-1.871686 18.130205 -6.714903 -173.490047 -57.229347 -175.230515 -8.184310 -12.095263 -31.961225 0.314566 9.245354 23.727571 -0.262425 3.820090 3.353822 0.084300 -1.873300 -5.155600 22.075732 -5.261245 -16.484457 0.364090 -7.727648 21.920663 -4.633882 19.819913 1.616542 -2.770400 -10.313800 29.999000 1.122185 0.995486 -2.920627 -1.283872 0.789700 10.842869 8.030884 -1.726903 20.883270 2.735700 -0.413200 3.872300 -96.186111 -6.314433 25.213011 18.150529 -28.847561 -5.120390 0.144839 -0.584361 17.143722 -7.125000 0.000000 0.000000 89.759161 7.856786 18.330782 -19.023336 31.603373 -4.709070 0.892661 -1.338798 23.704282 7.125000 0.000000 0.000000 
-2.071145 18.126997 -6.854403 -173.645544 -56.623764 -175.163116 -8.116055 -11.372314 -31.748609 -0.208485 8.040574 20.247835 -0.052082 2.871349 5.072057 0.083200 -1.860200 -5.119500 21.866956 -4.980430 -15.111257 0.458522 -7.416562 21.162035 -4.627056 19.703307 1.506120 -2.775700 -10.322800 30.028300 1.079095 1.162506 -2.902433 -1.334087 0.882758 10.907619 7.901921 -1.377131 20.770269 2.758000 -0.250400 3.791400 -96.183456 -6.196718 25.109679 18.146075 -28.833720 -5.117965 0.147688 -0.595073 17.054839 -7.125000 0.000000 0.000000 90.108918 8.122576 19.290253 -19.324241 31.947699 -4.784146 0.888472 -1.336792 23.891288 7.125000 0.000000 0.000000 
-2.275471 18.115381 -6.995341 -173.261371 -56.068323 -175.504662 -7.902375 -10.450451 -31.739865 -0.574437 7.011791 17.359801 0.147218 1.957590 6.455094 0.084600 -1.876500 -5.164400 21.975087 -4.654362 -13.787365 0.551618 -7.122723 20.451869 -4.575826 19.583753 1.599749 -2.916500 -10.558700 30.805600 1.014725 1.452160 -2.898578 -1.671572 1.070651 10.922634 7.898574 -1.206108 20.714645 2.802400 -0.171100 3.761800 -95.956866 -6.039136 25.152812 17.995330 -28.621650 -5.036001 0.148111 -0.604940 17.168587 -7.125000 0.000000 0.000000 90.566469 8.177617 20.144565 -19.580807 32.281893 -4.848373 0.890002 -1.348184 23.782299 7.125000 0.000000 0.000000 
